<?xml version="1.0" encoding="UTF-8"?>
<svg id="Layer_1" data-name="Layer 1" xmlns="http://www.w3.org/2000/svg" viewBox="0 0 2500.25 2256.29">
  <defs>
    <style>
      .cls-1 {
        fill: #75f6ff;
      }

      .cls-2 {
        fill: #94a6f1;
      }

      .cls-3 {
        fill: #5995ff;
      }

      .cls-4 {
        fill: #7d9ec8;
      }

      .cls-5 {
        fill: #a7d3ff;
      }

      .cls-6 {
        fill: #2fbfd4;
      }

      .cls-7 {
        fill: #81879c;
      }

      .cls-8 {
        fill: #dfeecb;
      }

      .cls-9 {
        fill: #c6a14b;
      }

      .cls-10 {
        fill: #9d6d43;
      }

      .cls-11 {
        fill: #dba875;
      }

      .cls-12 {
        fill: #48ceff;
      }
    </style>
  </defs>
  <g>
    <path class="cls-12" d="M568.49,719.36l-484.34,406.24c0-117.6,428.65-937.56,608.01-1031.37l-123.67,625.13Z"/>
    <path class="cls-6" d="M532.02,1493.65l106.2,628.36c-176.25-118.11-543.87-814.15-554.07-996.4l447.87,368.04Z"/>
    <path class="cls-10" d="M1250.12,1942.41l587.01,200.56c-187.58,108.08-1045.23,81.4-1198.91-20.97l611.9-179.59Z"/>
    <path class="cls-9" d="M1955.13,1513.69l472.02-385.36c-50.82,331.15-307.48,796.18-590.02,1014.64l118-629.28Z"/>
    <path class="cls-4" d="M1980.52,758.43l-135.93-653.61c287.55,236.01,463.13,529.44,582.56,1023.51l-446.64-369.9Z"/>
    <path class="cls-3" d="M1256.11,306.21L692.16,94.24c96.78-60.71,1038.71-69.41,1152.42,10.59l-588.47,201.39Z"/>
  </g>
  <path class="cls-1" d="M532.02,1493.65l-447.87-368.04,484.34-406.24c-.33,4.64-56.36,238.28-61.37,276.09-7.75,58.43-18.16,176.94-10.33,242.1,4.85,40.32,35.64,259.13,35.23,256.09Z"/>
  <path class="cls-7" d="M1250.12,1942.41l-611.9,179.59-106.2-628.36s141.08,138,205.25,186.92c88.88,67.76,163.47,116.72,222.01,145.62,49.9,24.64,290.85,116.22,290.85,116.22Z"/>
  <path class="cls-11" d="M1955.13,1513.69l-118,629.28-587.01-200.56s180.89-61.73,254.58-95.4c115.86-52.94,190.66-105.23,242.22-145.28,148.28-115.19,208.21-188.04,208.21-188.04Z"/>
  <path class="cls-8" d="M1980.52,758.43l446.64,369.9-472.02,385.36s46.38-185.72,55.91-259.41c12.53-96.89,10.8-167.72,5.95-240.14-2.8-41.84-36.47-255.71-36.47-255.71Z"/>
  <path class="cls-2" d="M1256.11,306.21l588.47-201.39,135.93,653.61c.77-1.9-76.85-96.88-231.43-211.23-83.22-61.56-157.05-105.25-224.89-137.22-50.75-23.92-268.07-103.76-268.07-103.76Z"/>
  <path class="cls-5" d="M568.49,719.36l123.67-625.13,563.95,211.98s-114.75,34.72-239.12,86.96c-145.02,60.92-153.67,68.29-246.92,144.43-123.02,100.45-201.58,181.76-201.58,181.76Z"/>
</svg>